<?xml version="1.0" encoding="UTF-8" standalone="no"?>
<!-- Created with Inkscape (http://www.inkscape.org/) -->

<svg
   xmlns:dc="http://purl.org/dc/elements/1.1/"
   xmlns:cc="http://creativecommons.org/ns#"
   xmlns:rdf="http://www.w3.org/1999/02/22-rdf-syntax-ns#"
   xmlns:svg="http://www.w3.org/2000/svg"
   xmlns="http://www.w3.org/2000/svg"
   xmlns:sodipodi="http://sodipodi.sourceforge.net/DTD/sodipodi-0.dtd"
   xmlns:inkscape="http://www.inkscape.org/namespaces/inkscape"
   version="1.1"
   id="svg29"
   xml:space="preserve"
   width="480"
   height="192"
   viewBox="0 0 480 192"
   sodipodi:docname="TTMI_Black and White.ai.svg"
   inkscape:version="0.92.1 r15371"><metadata
     id="metadata35"><rdf:RDF><cc:Work
         rdf:about=""><dc:format>image/svg+xml</dc:format><dc:type
           rdf:resource="http://purl.org/dc/dcmitype/StillImage" /><dc:title></dc:title></cc:Work></rdf:RDF></metadata><defs
     id="defs33"><clipPath
       clipPathUnits="userSpaceOnUse"
       id="clipPath49"><path
         d="M 0,144 H 360 V 0 H 0 Z"
         id="path47"
         inkscape:connector-curvature="0" /></clipPath></defs><sodipodi:namedview
     pagecolor="#ffffff"
     bordercolor="#666666"
     borderopacity="1"
     objecttolerance="10"
     gridtolerance="10"
     guidetolerance="10"
     inkscape:pageopacity="0"
     inkscape:pageshadow="2"
     inkscape:window-width="1916"
     inkscape:window-height="1045"
     id="namedview31"
     showgrid="false"
     inkscape:zoom="2.5897786"
     inkscape:cx="231.51761"
     inkscape:cy="96.627723"
     inkscape:window-x="1920"
     inkscape:window-y="1096"
     inkscape:window-maximized="0"
     inkscape:current-layer="g37" /><g
     id="g37"
     inkscape:groupmode="layer"
     inkscape:label="TTMI_Black and White"
     transform="matrix(1.3333333,0,0,-1.3333333,0,192)"><g
       id="g39"
       transform="translate(130.4136,102.3916)"
       style="fill:#000000"><path
         d="M 0,0 H -10.452 V 6.834 H 18.961 V 0 H 8.576 V -39.932 H 0 Z"
         style="fill:#000000;fill-opacity:1;fill-rule:nonzero;stroke:none"
         id="path41"
         inkscape:connector-curvature="0" /></g><g
       id="g43"
       style="fill:#000000"><g
         id="g45"
         clip-path="url(#clipPath49)"
         style="fill:#000000"><g
           id="g51"
           transform="translate(154.5327,112.71)"
           style="fill:#000000"><path
             d="m 0,0 h 8.308 v -20.166 h 0.201 c 0.357,0.535 0.76,1.094 1.207,1.674 0.445,0.58 1.004,1.117 1.674,1.609 0.67,0.49 1.463,0.893 2.379,1.205 0.916,0.313 2.021,0.469 3.316,0.469 1.92,0 3.541,-0.334 4.857,-1.004 1.318,-0.67 2.367,-1.598 3.15,-2.781 0.78,-1.184 1.34,-2.545 1.674,-4.086 0.336,-1.541 0.504,-3.184 0.504,-4.926 V -50.25 h -8.308 v 20.703 c 0,2.68 -0.369,4.6 -1.106,5.762 -0.738,1.162 -1.955,1.742 -3.652,1.742 -1.072,0 -1.988,-0.213 -2.746,-0.637 -0.76,-0.424 -1.373,-1.004 -1.844,-1.742 C 9.146,-25.158 8.812,-26.018 8.61,-27 8.409,-27.984 8.308,-29.033 8.308,-30.15 v -20.1 H 0 Z"
             style="fill:#000000;fill-opacity:1;fill-rule:nonzero;stroke:none"
             id="path53"
             inkscape:connector-curvature="0" /></g><g
           id="g55"
           transform="translate(209.004,82.6943)"
           style="fill:#000000"><path
             d="M 0,0 C 0,6.119 -1.922,9.18 -5.764,9.18 -6.834,9.18 -7.762,8.91 -8.543,8.375 -9.326,7.84 -9.973,7.146 -10.486,6.299 -11,5.449 -11.369,4.467 -11.592,3.35 -11.816,2.232 -11.928,1.115 -11.928,0 Z m 6.297,-18.559 c -0.895,-0.357 -2.199,-0.816 -3.92,-1.373 -1.719,-0.558 -3.852,-0.838 -6.398,-0.838 -2.77,0 -5.159,0.469 -7.168,1.407 -2.01,0.937 -3.665,2.187 -4.959,3.752 -1.295,1.562 -2.256,3.394 -2.881,5.494 -0.625,2.099 -0.938,4.31 -0.938,6.633 0,2.589 0.324,4.992 0.971,7.203 0.648,2.211 1.586,4.142 2.814,5.795 1.229,1.652 2.715,2.949 4.455,3.886 1.743,0.938 3.731,1.407 5.963,1.407 1.877,0 3.641,-0.301 5.293,-0.905 C 1.182,13.299 2.646,12.283 3.918,10.854 5.191,9.424 6.197,7.537 6.934,5.193 7.67,2.848 8.039,-0.09 8.039,-3.617 v -1.61 h -19.967 c 0,-2.947 0.66,-5.259 1.977,-6.933 1.318,-1.676 3.586,-2.514 6.801,-2.514 2.546,0 4.5,0.303 5.863,0.906 1.361,0.602 2.422,1.194 3.182,1.776 z"
             style="fill:#000000;fill-opacity:1;fill-rule:nonzero;stroke:none"
             id="path57"
             inkscape:connector-curvature="0" /></g><g
           id="g59"
           transform="translate(239.4043,102.3916)"
           style="fill:#000000"><path
             d="M 0,0 H -10.451 V 6.834 H 18.961 V 0 H 8.576 V -39.932 H 0 Z"
             style="fill:#000000;fill-opacity:1;fill-rule:nonzero;stroke:none"
             id="path61"
             inkscape:connector-curvature="0" /></g><g
           id="g63"
           transform="translate(276.7989,82.6943)"
           style="fill:#000000"><path
             d="m 0,0 c 0,6.119 -1.92,9.18 -5.762,9.18 -1.072,0 -2,-0.27 -2.781,-0.805 C -9.324,7.84 -9.973,7.146 -10.484,6.299 -11,5.449 -11.367,4.467 -11.59,3.35 -11.815,2.232 -11.926,1.115 -11.926,0 Z m 6.299,-18.559 c -0.895,-0.357 -2.201,-0.816 -3.92,-1.373 -1.721,-0.558 -3.854,-0.838 -6.399,-0.838 -2.769,0 -5.16,0.469 -7.17,1.407 -2.009,0.937 -3.662,2.187 -4.957,3.752 -1.296,1.562 -2.255,3.394 -2.88,5.494 -0.627,2.099 -0.938,4.31 -0.938,6.633 0,2.589 0.322,4.992 0.971,7.203 0.646,2.211 1.584,4.142 2.814,5.795 1.227,1.652 2.713,2.949 4.455,3.886 1.743,0.938 3.729,1.407 5.963,1.407 1.875,0 3.641,-0.301 5.293,-0.905 C 1.184,13.299 2.646,12.283 3.92,10.854 5.193,9.424 6.197,7.537 6.935,5.193 7.672,2.848 8.041,-0.09 8.041,-3.617 v -1.61 h -19.967 c 0,-2.947 0.658,-5.259 1.977,-6.933 1.316,-1.676 3.584,-2.514 6.801,-2.514 2.544,0 4.5,0.303 5.861,0.906 1.363,0.602 2.424,1.194 3.183,1.776 z"
             style="fill:#000000;fill-opacity:1;fill-rule:nonzero;stroke:none"
             id="path65"
             inkscape:connector-curvature="0" /></g><g
           id="g67"
           transform="translate(314.7207,63.3311)"
           style="fill:#000000"><path
             d="m 0,0 c -0.982,-0.357 -2.166,-0.682 -3.551,-0.971 -1.385,-0.291 -2.926,-0.435 -4.623,-0.435 -2.859,0 -5.304,0.469 -7.336,1.406 -2.033,0.938 -3.709,2.211 -5.025,3.82 -1.318,1.608 -2.289,3.483 -2.914,5.627 -0.627,2.145 -0.938,4.444 -0.938,6.901 0,2.457 0.323,4.767 0.971,6.935 0.646,2.166 1.652,4.053 3.016,5.662 1.361,1.608 3.091,2.881 5.191,3.819 2.1,0.937 4.6,1.406 7.504,1.406 1.295,0 2.635,-0.156 4.019,-0.469 1.385,-0.312 2.458,-0.625 3.217,-0.937 l -0.468,-6.567 c -0.76,0.358 -1.631,0.727 -2.614,1.106 -0.982,0.379 -2.054,0.57 -3.217,0.57 -3.214,0 -5.527,-0.996 -6.933,-2.982 -1.406,-1.989 -2.112,-4.858 -2.112,-8.61 0,-1.607 0.19,-3.105 0.571,-4.488 0.379,-1.385 0.961,-2.592 1.742,-3.619 0.781,-1.028 1.764,-1.832 2.947,-2.412 1.184,-0.58 2.58,-0.871 4.188,-0.871 1.027,0 2.121,0.189 3.283,0.57 1.162,0.379 2.033,0.748 2.613,1.105 z"
             style="fill:#000000;fill-opacity:1;fill-rule:nonzero;stroke:none"
             id="path69"
             inkscape:connector-curvature="0" /></g><g
           id="g71"
           transform="translate(321.7636,112.71)"
           style="fill:#000000"><path
             d="m 0,0 h 8.307 v -20.166 h 0.201 c 0.357,0.535 0.76,1.094 1.207,1.674 0.445,0.58 1.004,1.117 1.674,1.609 0.67,0.49 1.463,0.893 2.379,1.205 0.916,0.313 2.021,0.469 3.316,0.469 1.92,0 3.541,-0.334 4.857,-1.004 1.319,-0.67 2.368,-1.598 3.151,-2.781 0.779,-1.184 1.34,-2.545 1.674,-4.086 0.336,-1.541 0.504,-3.184 0.504,-4.926 V -50.25 h -8.309 v 20.703 c 0,2.68 -0.369,4.6 -1.106,5.762 -0.738,1.162 -1.955,1.742 -3.652,1.742 -1.072,0 -1.988,-0.213 -2.746,-0.637 -0.76,-0.424 -1.373,-1.004 -1.844,-1.742 C 9.145,-25.158 8.811,-26.018 8.609,-27 8.408,-27.984 8.307,-29.033 8.307,-30.15 v -20.1 H 0 Z"
             style="fill:#000000;fill-opacity:1;fill-rule:nonzero;stroke:none"
             id="path73"
             inkscape:connector-curvature="0" /></g><g
           id="g75"
           transform="translate(141.9483,32.5606)"
           style="fill:#000000"><path
             d="M 0,0 H 3.1 V 15.156 H -1.916 L -4.6,5.277 h -0.198 l -2.486,9.879 H -12.54 V 0 h 3.1 v 12.143 h 0.22 L -9.2,12.07 -5.898,0 h 2.224 L -0.22,12.143 H 0 Z"
             style="fill:#000000;fill-opacity:1;fill-rule:nonzero;stroke:none"
             id="path77"
             inkscape:connector-curvature="0" /></g><g
           id="g79"
           transform="translate(148.1299,43.8223)"
           style="fill:#000000"><path
             d="m 0,0 v -7.402 c 0,-0.561 0.055,-1.098 0.163,-1.596 0.106,-0.49 0.29,-0.922 0.545,-1.283 0.253,-0.359 0.592,-0.645 1.007,-0.848 0.417,-0.205 0.939,-0.309 1.551,-0.309 0.883,0 1.569,0.186 2.039,0.551 0.476,0.369 0.846,0.866 1.103,1.478 l 0.026,0.061 h 0.21 v -0.099 c 0,-0.379 0.007,-0.733 0.022,-1.052 0.013,-0.282 0.031,-0.538 0.055,-0.763 H 9.69 C 9.665,-11 9.647,-10.705 9.634,-10.364 9.62,-10.013 9.613,-9.567 9.613,-8.963 V 0 H 6.336 v -6.324 c 0,-0.76 -0.119,-1.375 -0.352,-1.828 -0.246,-0.474 -0.672,-0.714 -1.266,-0.714 -0.376,0 -0.713,0.131 -1.002,0.388 -0.296,0.265 -0.44,0.761 -0.44,1.517 l 0,6.961 z"
             style="fill:#000000;fill-opacity:1;fill-rule:nonzero;stroke:none"
             id="path81"
             inkscape:connector-curvature="0" /></g><g
           id="g83"
           transform="translate(160.2617,32.9043)"
           style="fill:#000000"><path
             d="m 0,0 c 0.589,-0.203 1.216,-0.342 1.866,-0.41 0.68,-0.072 1.283,-0.11 1.793,-0.11 0.563,0 1.103,0.066 1.603,0.196 0.5,0.128 0.944,0.33 1.321,0.599 0.372,0.266 0.668,0.62 0.881,1.052 0.212,0.432 0.32,0.968 0.32,1.595 C 7.784,3.449 7.716,3.9 7.581,4.263 7.446,4.623 7.267,4.932 7.049,5.176 6.829,5.425 6.579,5.625 6.307,5.77 6.026,5.922 5.737,6.058 5.448,6.174 4.981,6.348 4.588,6.5 4.282,6.625 3.97,6.75 3.715,6.88 3.526,7.009 3.331,7.14 3.192,7.276 3.111,7.414 3.029,7.553 2.988,7.722 2.988,7.916 c 0,0.236 0.115,0.453 0.343,0.648 0.225,0.194 0.57,0.288 1.055,0.288 0.515,0 1.005,-0.056 1.453,-0.167 C 6.24,8.584 6.658,8.449 7.085,8.281 l 0.08,2.38 C 6.881,10.754 6.48,10.848 5.973,10.942 5.426,11.043 4.788,11.094 4.077,11.094 3.245,11.094 2.548,10.975 2.005,10.74 1.462,10.504 1.03,10.212 0.719,9.873 0.407,9.533 0.189,9.168 0.07,8.788 -0.051,8.404 -0.113,8.059 -0.113,7.762 c 0,-0.5 0.069,-0.94 0.203,-1.307 C 0.226,6.084 0.401,5.761 0.614,5.492 0.828,5.223 1.075,4.992 1.35,4.809 1.628,4.623 1.923,4.463 2.225,4.334 2.971,4.027 3.557,3.789 3.982,3.619 4.447,3.436 4.683,3.193 4.683,2.9 4.683,2.76 4.667,2.623 4.636,2.492 4.603,2.348 4.518,2.215 4.385,2.1 4.257,1.986 4.07,1.895 3.831,1.825 3.595,1.757 3.264,1.722 2.846,1.722 2.354,1.722 1.849,1.793 1.344,1.935 0.895,2.061 0.47,2.232 0.08,2.445 Z"
             style="fill:#000000;fill-opacity:1;fill-rule:nonzero;stroke:none"
             id="path85"
             inkscape:connector-curvature="0" /></g><g
           id="g87"
           transform="translate(176.8145,39.0703)"
           style="fill:#000000"><path
             d="m 0,0 h -3.786 v 0.1 c 0,0.142 0.011,0.365 0.034,0.701 0.023,0.324 0.091,0.65 0.204,0.97 0.115,0.331 0.301,0.622 0.553,0.865 0.26,0.253 0.628,0.381 1.093,0.381 0.369,0 0.683,-0.083 0.933,-0.248 C -0.719,2.605 -0.52,2.381 -0.373,2.104 -0.23,1.832 -0.131,1.519 -0.076,1.172 -0.025,0.83 0,0.471 0,0.1 Z M -1.902,4.928 C -2.706,4.928 -3.423,4.77 -4.036,4.455 -4.652,4.14 -5.177,3.712 -5.598,3.184 -6.021,2.654 -6.345,2.031 -6.56,1.336 -6.776,0.637 -6.885,-0.098 -6.885,-0.846 c 0,-0.867 0.113,-1.668 0.336,-2.379 0.222,-0.709 0.57,-1.326 1.035,-1.832 0.463,-0.507 1.057,-0.909 1.767,-1.197 0.71,-0.286 1.575,-0.432 2.569,-0.432 0.592,0 1.207,0.059 1.83,0.174 0.598,0.112 1.168,0.264 1.7,0.455 L 2.291,-3.673 C 1.895,-3.879 1.439,-4.065 0.932,-4.23 c -0.571,-0.186 -1.168,-0.28 -1.78,-0.28 -0.494,0 -0.931,0.076 -1.302,0.227 -0.37,0.152 -0.682,0.355 -0.925,0.607 -0.243,0.25 -0.425,0.543 -0.54,0.871 -0.113,0.327 -0.171,0.668 -0.171,1.014 v 0.1 h 6.755 v 0.736 c 0,0.98 -0.098,1.818 -0.293,2.49 C 2.482,2.202 2.232,2.762 1.93,3.201 1.633,3.633 1.297,3.967 0.926,4.195 0.555,4.424 0.182,4.594 -0.182,4.701 -0.555,4.811 -0.883,4.874 -1.184,4.896 -1.488,4.917 -1.73,4.928 -1.902,4.928"
             style="fill:#000000;fill-opacity:1;fill-rule:nonzero;stroke:none"
             id="path89"
             inkscape:connector-curvature="0" /></g><g
           id="g91"
           transform="translate(182.0137,43.8223)"
           style="fill:#000000"><path
             d="m 0,0 v -7.402 c 0,-0.565 0.055,-1.102 0.164,-1.596 0.106,-0.488 0.289,-0.92 0.545,-1.283 0.252,-0.36 0.592,-0.645 1.006,-0.848 0.418,-0.205 0.939,-0.309 1.553,-0.309 0.882,0 1.568,0.186 2.037,0.551 0.476,0.368 0.845,0.866 1.103,1.478 l 0.026,0.061 h 0.211 v -0.099 c 0,-0.364 0.007,-0.717 0.021,-1.052 0.014,-0.293 0.033,-0.544 0.057,-0.763 h 2.966 c -0.023,0.26 -0.041,0.555 -0.054,0.897 -0.016,0.392 -0.022,0.863 -0.022,1.402 V 0 H 6.336 v -6.324 c 0,-0.76 -0.119,-1.375 -0.352,-1.828 -0.246,-0.474 -0.672,-0.714 -1.265,-0.714 -0.377,0 -0.713,0.131 -1.002,0.388 -0.297,0.265 -0.44,0.76 -0.44,1.517 l 0,6.961 z"
             style="fill:#000000;fill-opacity:1;fill-rule:nonzero;stroke:none"
             id="path93"
             inkscape:connector-curvature="0" /></g><g
           id="g95"
           transform="translate(207.25,32.5606)"
           style="fill:#000000"><path
             d="m 0,0 h 3.277 v 7.402 c 0,0.565 -0.054,1.098 -0.164,1.584 -0.105,0.483 -0.289,0.91 -0.545,1.274 -0.252,0.359 -0.591,0.648 -1.007,0.858 -0.415,0.212 -0.936,0.32 -1.549,0.32 -0.883,0 -1.557,-0.178 -2.006,-0.529 -0.455,-0.354 -0.809,-0.802 -1.049,-1.327 l -0.094,-0.203 -0.09,0.205 c -0.242,0.555 -0.584,1.008 -1.013,1.348 -0.428,0.336 -1.055,0.506 -1.865,0.506 -0.881,0 -1.569,-0.186 -2.04,-0.551 -0.476,-0.37 -0.847,-0.867 -1.103,-1.478 L -9.273,9.348 h -0.209 v 0.099 c 0,0.364 -0.008,0.717 -0.022,1.052 -0.014,0.293 -0.033,0.544 -0.057,0.763 h -2.966 c 0.023,-0.262 0.041,-0.556 0.054,-0.897 0.016,-0.391 0.022,-0.863 0.022,-1.4 V 0 h 3.275 v 6.324 c 0,0.742 0.119,1.354 0.354,1.817 0.242,0.481 0.676,0.725 1.287,0.725 0.156,0 0.31,-0.028 0.465,-0.083 0.156,-0.058 0.299,-0.16 0.425,-0.304 C -6.52,8.339 -6.42,8.146 -6.34,7.895 -6.264,7.652 -6.227,7.347 -6.227,6.961 V 0 h 3.278 v 7.16 c 0,0.442 0.117,0.838 0.347,1.178 0.241,0.35 0.637,0.528 1.182,0.528 0.41,0 0.752,-0.147 1.022,-0.439 C -0.133,8.137 0,7.643 0,6.961 Z"
             style="fill:#000000;fill-opacity:1;fill-rule:nonzero;stroke:none"
             id="path97"
             inkscape:connector-curvature="0" /></g><g
           id="g99"
           transform="translate(222.7549,34.5606)"
           style="fill:#000000"><path
             d="m 0,0 c -0.655,0 -1.141,0.334 -1.444,0.992 -0.29,0.635 -0.437,1.533 -0.437,2.672 0,1.139 0.147,2.027 0.437,2.639 C -1.14,6.939 -0.654,7.262 0,7.262 0.654,7.262 1.14,6.939 1.443,6.303 1.734,5.691 1.881,4.803 1.881,3.664 1.881,2.525 1.734,1.627 1.444,0.993 1.141,0.334 0.655,0 0,0 M 0,9.438 C -0.863,9.438 -1.634,9.293 -2.292,9.006 -2.951,8.719 -3.506,8.32 -3.94,7.822 -4.376,7.322 -4.713,6.709 -4.942,5.998 -5.174,5.287 -5.291,4.502 -5.291,3.664 c 0,-0.853 0.117,-1.646 0.349,-2.356 0.23,-0.711 0.567,-1.333 1.003,-1.847 0.433,-0.513 0.988,-0.918 1.647,-1.205 0.658,-0.287 1.429,-0.432 2.292,-0.432 0.863,0 1.634,0.145 2.292,0.432 0.659,0.287 1.214,0.692 1.647,1.205 0.436,0.514 0.773,1.136 1.003,1.847 0.232,0.71 0.349,1.503 0.349,2.356 0,0.838 -0.117,1.623 -0.349,2.334 C 4.713,6.709 4.376,7.322 3.94,7.822 3.506,8.32 2.951,8.719 2.292,9.006 1.634,9.293 0.863,9.438 0,9.438"
             style="fill:#000000;fill-opacity:1;fill-rule:nonzero;stroke:none"
             id="path101"
             inkscape:connector-curvature="0" /></g><g
           id="g103"
           transform="translate(231.1133,32.5606)"
           style="fill:#000000"><path
             d="m 0,0 h 3.275 v 9.02 h 2.09 v 2.242 h -2.09 v 1.332 c 0,0.633 0.11,1.058 0.335,1.301 0.227,0.242 0.603,0.361 1.152,0.361 0.294,0 0.565,-0.044 0.807,-0.131 l 0.079,2.189 c -0.192,0.034 -0.437,0.081 -0.731,0.143 -0.342,0.07 -0.823,0.106 -1.431,0.106 -0.703,0 -1.287,-0.089 -1.734,-0.266 C 1.308,16.12 0.951,15.878 0.691,15.576 0.432,15.273 0.249,14.918 0.149,14.517 0.051,14.108 0,13.676 0,13.232 v -1.97 H -2.002 V 9.02 H 0 Z"
             style="fill:#000000;fill-opacity:1;fill-rule:nonzero;stroke:none"
             id="path105"
             inkscape:connector-curvature="0" /></g><path
           d="m 244.105,32.561 h 3.408 v 15.156 h -3.408 z"
           style="fill:#000000;fill-opacity:1;fill-rule:nonzero;stroke:none"
           id="path107"
           inkscape:connector-curvature="0" /><g
           id="g109"
           transform="translate(257.1806,32.5606)"
           style="fill:#000000"><path
             d="m 0,0 h 3.277 v 7.402 c 0,0.556 -0.055,1.089 -0.164,1.584 -0.105,0.483 -0.289,0.91 -0.545,1.274 -0.252,0.357 -0.59,0.646 -1.007,0.858 -0.417,0.212 -0.939,0.32 -1.551,0.32 -0.882,0 -1.569,-0.186 -2.04,-0.551 -0.477,-0.37 -0.848,-0.867 -1.103,-1.478 L -3.158,9.348 h -0.209 v 0.099 c 0,0.364 -0.008,0.717 -0.022,1.052 -0.014,0.293 -0.033,0.544 -0.056,0.763 H -6.413 C -6.39,11 -6.371,10.706 -6.357,10.365 -6.343,9.973 -6.336,9.502 -6.336,8.965 V 0 h 3.276 v 6.324 c 0,0.758 0.118,1.372 0.352,1.828 0.244,0.474 0.67,0.714 1.267,0.714 0.375,0 0.711,-0.131 1,-0.389 C -0.144,8.213 0,7.717 0,6.961 Z"
             style="fill:#000000;fill-opacity:1;fill-rule:nonzero;stroke:none"
             id="path111"
             inkscape:connector-curvature="0" /></g><g
           id="g113"
           transform="translate(345.7666,32.5606)"
           style="fill:#000000"><path
             d="m 0,0 h 3.277 v 7.402 c 0,0.556 -0.055,1.089 -0.164,1.584 -0.105,0.483 -0.289,0.91 -0.545,1.274 -0.252,0.357 -0.59,0.646 -1.007,0.858 -0.417,0.212 -0.939,0.32 -1.551,0.32 -0.882,0 -1.569,-0.186 -2.04,-0.551 -0.477,-0.37 -0.848,-0.867 -1.103,-1.478 L -3.158,9.348 h -0.209 v 0.099 c 0,0.364 -0.008,0.717 -0.022,1.052 -0.014,0.293 -0.033,0.544 -0.056,0.763 H -6.413 C -6.39,11 -6.371,10.706 -6.357,10.365 -6.343,9.973 -6.336,9.502 -6.336,8.965 V 0 h 3.275 v 6.324 c 0,0.758 0.119,1.372 0.353,1.828 0.244,0.474 0.67,0.714 1.267,0.714 0.375,0 0.711,-0.131 1,-0.389 C -0.145,8.213 0,7.717 0,6.961 Z"
             style="fill:#000000;fill-opacity:1;fill-rule:nonzero;stroke:none"
             id="path115"
             inkscape:connector-curvature="0" /></g><g
           id="g117"
           transform="translate(269.8819,32.5606)"
           style="fill:#000000"><path
             d="m 0,0 h 3.277 v 7.402 c 0,0.556 -0.055,1.089 -0.164,1.584 -0.105,0.483 -0.289,0.91 -0.545,1.274 -0.252,0.357 -0.591,0.646 -1.007,0.858 -0.417,0.212 -0.939,0.32 -1.551,0.32 -0.882,0 -1.569,-0.186 -2.04,-0.551 -0.477,-0.37 -0.848,-0.867 -1.103,-1.478 L -3.158,9.348 h -0.209 v 0.099 c 0,0.364 -0.008,0.717 -0.022,1.052 -0.014,0.293 -0.033,0.544 -0.056,0.763 H -6.413 C -6.39,11 -6.371,10.706 -6.357,10.365 -6.343,9.973 -6.336,9.502 -6.336,8.965 V 0 h 3.275 v 6.324 c 0,0.758 0.119,1.372 0.353,1.828 0.244,0.474 0.67,0.714 1.267,0.714 0.375,0 0.71,-0.131 1,-0.389 C -0.145,8.213 0,7.717 0,6.961 Z"
             style="fill:#000000;fill-opacity:1;fill-rule:nonzero;stroke:none"
             id="path119"
             inkscape:connector-curvature="0" /></g><g
           id="g121"
           transform="translate(280.753,34.5606)"
           style="fill:#000000"><path
             d="m 0,0 c -0.657,0 -1.143,0.334 -1.444,0.993 -0.291,0.632 -0.439,1.53 -0.439,2.671 0,1.141 0.148,2.028 0.44,2.639 C -1.142,6.939 -0.656,7.262 0,7.262 0.655,7.262 1.14,6.939 1.441,6.303 1.733,5.692 1.881,4.805 1.881,3.664 1.881,2.523 1.733,1.625 1.442,0.992 1.141,0.334 0.655,0 0,0 M 0,9.438 C -0.863,9.438 -1.634,9.293 -2.292,9.006 -2.95,8.721 -3.505,8.322 -3.94,7.822 -4.378,7.32 -4.716,6.706 -4.944,5.998 -5.174,5.285 -5.291,4.5 -5.291,3.664 c 0,-0.851 0.117,-1.644 0.347,-2.356 0.229,-0.708 0.567,-1.331 1.004,-1.847 0.435,-0.514 0.99,-0.92 1.648,-1.205 0.658,-0.287 1.429,-0.432 2.292,-0.432 0.861,0 1.632,0.145 2.292,0.432 0.657,0.286 1.211,0.691 1.646,1.205 C 4.375,-0.023 4.713,0.6 4.942,1.308 5.172,2.02 5.289,2.813 5.289,3.664 5.289,4.5 5.172,5.285 4.942,5.998 4.714,6.706 4.376,7.32 3.938,7.822 3.503,8.321 2.949,8.72 2.292,9.006 1.632,9.293 0.861,9.438 0,9.438"
             style="fill:#000000;fill-opacity:1;fill-rule:nonzero;stroke:none"
             id="path123"
             inkscape:connector-curvature="0" /></g><g
           id="g125"
           transform="translate(290.622,32.5606)"
           style="fill:#000000"><path
             d="M 0,0 H 3.945 L 7.469,11.262 H 4.293 L 2.203,3.1 H 2.004 l -2.111,8.162 h -3.395 z"
             style="fill:#000000;fill-opacity:1;fill-rule:nonzero;stroke:none"
             id="path127"
             inkscape:connector-curvature="0" /></g><g
           id="g129"
           transform="translate(303.6016,34.3848)"
           style="fill:#000000"><path
             d="m 0,0 c -0.076,0 -0.196,0.007 -0.362,0.021 -0.176,0.017 -0.357,0.077 -0.535,0.178 -0.181,0.104 -0.344,0.262 -0.485,0.473 -0.142,0.214 -0.214,0.524 -0.214,0.924 0,0.508 0.131,0.908 0.39,1.189 0.251,0.274 0.566,0.483 0.939,0.621 0.366,0.134 0.764,0.217 1.184,0.246 0.425,0.032 0.802,0.046 1.151,0.046 h 0.1 V 2.938 C 2.168,2.222 2.072,1.659 1.883,1.267 1.693,0.872 1.468,0.578 1.213,0.393 0.959,0.208 0.708,0.095 0.467,0.057 0.238,0.02 0.081,0 0,0 M 1.012,5.126 C 0.813,5.126 0.537,5.119 0.168,5.104 -0.186,5.09 -0.573,5.045 -0.984,4.973 -1.393,4.902 -1.816,4.789 -2.244,4.637 -2.665,4.486 -3.052,4.27 -3.392,3.993 -3.73,3.719 -4.014,3.362 -4.235,2.936 -4.453,2.512 -4.564,1.986 -4.564,1.375 c 0,-1.023 0.315,-1.85 0.937,-2.459 C -3.003,-1.691 -2.16,-2 -1.123,-2 c 0.397,0 0.78,0.058 1.136,0.171 0.357,0.114 0.674,0.259 0.945,0.43 0.271,0.17 0.492,0.356 0.659,0.551 0.164,0.192 0.268,0.37 0.31,0.532 L 1.945,-0.24 H 2.163 L 2.251,-1.824 H 5.216 C 5.203,-1.667 5.19,-1.504 5.18,-1.338 5.164,-1.132 5.154,-0.902 5.146,-0.65 5.139,-0.401 5.137,-0.121 5.137,0.187 V 5.49 c 0,0.616 -0.07,1.188 -0.206,1.7 C 4.795,7.694 4.548,8.131 4.196,8.489 3.843,8.849 3.35,9.129 2.73,9.32 2.107,9.516 1.284,9.613 0.285,9.613 -0.02,9.613 -0.344,9.588 -0.679,9.537 -1.017,9.488 -1.351,9.426 -1.673,9.352 -2.001,9.277 -2.313,9.2 -2.603,9.121 -2.869,9.051 -3.105,8.982 -3.306,8.917 l 0.14,-2.335 c 0.636,0.367 1.195,0.617 1.666,0.742 0.503,0.134 0.985,0.201 1.434,0.201 0.132,0 0.321,-0.011 0.559,-0.033 C 0.741,7.469 0.992,7.383 1.238,7.236 1.487,7.089 1.706,6.855 1.889,6.541 2.074,6.225 2.168,5.781 2.168,5.227 V 5.126 Z"
             style="fill:#000000;fill-opacity:1;fill-rule:nonzero;stroke:none"
             id="path131"
             inkscape:connector-curvature="0" /></g><g
           id="g133"
           transform="translate(310.6289,41.5801)"
           style="fill:#000000"><path
             d="m 0,0 h 1.893 v -5.908 c 0,-0.613 0.09,-1.137 0.267,-1.555 0.177,-0.416 0.415,-0.756 0.71,-1.009 0.296,-0.253 0.643,-0.439 1.031,-0.551 0.391,-0.115 0.815,-0.172 1.259,-0.172 0.547,0 1.045,0.033 1.48,0.097 0.381,0.057 0.663,0.118 0.84,0.179 v 2.226 C 7.35,-6.742 7.218,-6.783 7.088,-6.818 6.91,-6.865 6.697,-6.888 6.436,-6.888 6.072,-6.888 5.769,-6.779 5.532,-6.564 5.288,-6.346 5.17,-5.951 5.17,-5.357 V 0 H 7.414 V 2.242 H 5.17 V 5.637 L 1.98,4.623 V 2.242 H 0 Z"
             style="fill:#000000;fill-opacity:1;fill-rule:nonzero;stroke:none"
             id="path135"
             inkscape:connector-curvature="0" /></g><path
           d="m 321.132,45.98 h 3.277 v 2.88 h -3.277 z m 0,-13.419 h 3.277 v 11.262 h -3.277 z"
           style="fill:#000000;fill-opacity:1;fill-rule:nonzero;stroke:none"
           id="path137"
           inkscape:connector-curvature="0" /><g
           id="g139"
           transform="translate(332.1251,34.5606)"
           style="fill:#000000"><path
             d="m 0,0 c -0.655,0 -1.141,0.334 -1.444,0.992 -0.29,0.635 -0.437,1.533 -0.437,2.672 0,1.139 0.147,2.027 0.437,2.639 C -1.14,6.939 -0.654,7.262 0,7.262 0.654,7.262 1.14,6.939 1.443,6.303 1.734,5.691 1.881,4.803 1.881,3.664 1.881,2.525 1.734,1.627 1.444,0.993 1.141,0.334 0.655,0 0,0 M 0,9.438 C -0.863,9.438 -1.634,9.293 -2.292,9.006 -2.951,8.719 -3.506,8.32 -3.941,7.822 -4.376,7.322 -4.713,6.709 -4.942,5.998 -5.174,5.287 -5.291,4.502 -5.291,3.664 c 0,-0.853 0.117,-1.646 0.349,-2.356 0.23,-0.711 0.567,-1.333 1.002,-1.847 0.434,-0.513 0.989,-0.918 1.648,-1.205 0.658,-0.287 1.429,-0.432 2.292,-0.432 0.863,0 1.634,0.145 2.292,0.432 0.659,0.287 1.214,0.692 1.647,1.205 0.436,0.514 0.773,1.136 1.003,1.847 0.232,0.71 0.349,1.503 0.349,2.356 0,0.838 -0.117,1.623 -0.349,2.334 C 4.713,6.709 4.376,7.322 3.94,7.822 3.506,8.32 2.951,8.719 2.292,9.006 1.634,9.293 0.863,9.438 0,9.438"
             style="fill:#000000;fill-opacity:1;fill-rule:nonzero;stroke:none"
             id="path141"
             inkscape:connector-curvature="0" /></g><g
           id="g143"
           transform="translate(39.9521,89.241)"
           style="fill:#000000"><path
             d="M 0,0 C 0.086,0 0.173,-0.022 0.25,-0.067 L 28.998,-16.665 42.496,-8.871 14.248,7.438 c -0.155,0.089 -0.25,0.254 -0.25,0.433 0,0.179 0.095,0.344 0.25,0.433 l 13.75,7.936 -13.5,7.794 L -27.996,-0.5 -14.498,-8.294 -0.25,-0.067 C -0.173,-0.022 -0.086,0 0,0 m 28.998,-17.742 c -0.087,0 -0.173,0.022 -0.25,0.067 L 0,-1.077 -14.248,-9.304 c -0.154,-0.089 -0.346,-0.089 -0.5,0 l -14.498,8.371 c -0.155,0.089 -0.25,0.254 -0.25,0.433 0,0.179 0.095,0.344 0.25,0.433 l 43.494,25.111 c 0.154,0.089 0.345,0.089 0.5,0 l 14.5,-8.371 c 0.154,-0.089 0.25,-0.254 0.25,-0.433 0,-0.178 -0.096,-0.344 -0.25,-0.433 L 15.498,7.871 43.746,-8.438 c 0.154,-0.089 0.25,-0.254 0.25,-0.433 0,-0.179 -0.096,-0.344 -0.25,-0.433 l -14.498,-8.371 c -0.078,-0.045 -0.164,-0.067 -0.25,-0.067"
             style="fill:#000000;fill-opacity:1;fill-rule:nonzero;stroke:none"
             id="path145"
             inkscape:connector-curvature="0" /></g><g
           id="g147"
           transform="translate(40.9531,38.5184)"
           style="fill:#000000"><path
             d="M 0,0 13.499,-7.794 55.993,16.74 42.495,24.532 28.247,16.307 c -0.155,-0.089 -0.346,-0.089 -0.5,0 L -1,32.903 -14.499,25.109 13.749,8.802 c 0.154,-0.089 0.25,-0.254 0.25,-0.433 0,-0.179 -0.096,-0.344 -0.25,-0.433 z m 13.499,-8.871 c -0.087,0 -0.173,0.022 -0.25,0.067 L -1.25,-0.433 C -1.405,-0.344 -1.5,-0.179 -1.5,0 c 0,0.179 0.095,0.344 0.25,0.433 l 13.749,7.936 -28.248,16.307 c -0.155,0.09 -0.25,0.255 -0.25,0.433 0,0.179 0.095,0.344 0.25,0.433 l 14.499,8.372 c 0.154,0.088 0.346,0.088 0.5,0 l 28.747,-16.597 14.248,8.225 c 0.154,0.089 0.345,0.089 0.5,0 l 14.498,-8.369 c 0.154,-0.089 0.25,-0.254 0.25,-0.433 0,-0.178 -0.096,-0.344 -0.25,-0.433 L 13.749,-8.804 c -0.078,-0.045 -0.164,-0.067 -0.25,-0.067"
             style="fill:#000000;fill-opacity:1;fill-rule:nonzero;stroke:none"
             id="path149"
             inkscape:connector-curvature="0" /></g><g
           id="g151"
           transform="translate(25.4536,63.1277)"
           style="fill:#000000"><path
             d="m 0,0 c -0.085,0 -0.171,0.021 -0.25,0.067 l -14.498,8.371 c -0.154,0.089 -0.25,0.254 -0.25,0.433 v 16.742 c 0,0.277 0.224,0.5 0.5,0.5 0.277,0 0.5,-0.223 0.5,-0.5 V 9.16 L 0.25,0.933 C 0.49,0.795 0.572,0.489 0.434,0.25 0.341,0.089 0.173,0 0,0"
             style="fill:#000000;fill-opacity:1;fill-rule:nonzero;stroke:none"
             id="path153"
             inkscape:connector-curvature="0" /></g><g
           id="g155"
           transform="translate(97.9458,54.7586)"
           style="fill:#000000"><path
             d="m 0,0 c -0.276,0 -0.5,0.224 -0.5,0.5 v 16.452 l -14.248,8.226 c -0.239,0.138 -0.321,0.444 -0.183,0.683 0.138,0.24 0.444,0.322 0.683,0.183 L 0.25,17.673 C 0.405,17.584 0.5,17.419 0.5,17.24 V 0.5 C 0.5,0.224 0.276,0 0,0"
             style="fill:#000000;fill-opacity:1;fill-rule:nonzero;stroke:none"
             id="path157"
             inkscape:connector-curvature="0" /></g><g
           id="g159"
           transform="translate(39.9531,38.0184)"
           style="fill:#000000"><path
             d="m 0,0 c -0.276,0 -0.5,0.224 -0.5,0.5 v 16.74 c 0,0.277 0.224,0.5 0.5,0.5 0.276,0 0.5,-0.223 0.5,-0.5 V 0.5 C 0.5,0.224 0.276,0 0,0"
             style="fill:#000000;fill-opacity:1;fill-rule:nonzero;stroke:none"
             id="path161"
             inkscape:connector-curvature="0" /></g><g
           id="g163"
           transform="translate(68.9438,88.243)"
           style="fill:#000000"><path
             d="m 0,0 v 0 c -0.276,0 -0.5,0.224 -0.5,0.5 l 0.006,16.738 c 0,0.277 0.224,0.5 0.5,0.5 0.276,0 0.5,-0.224 0.5,-0.5 L 0.5,0.5 C 0.5,0.224 0.276,0 0,0"
             style="fill:#000000;fill-opacity:1;fill-rule:nonzero;stroke:none"
             id="path165"
             inkscape:connector-curvature="0" /></g><g
           id="g167"
           transform="translate(25.4541,63.1297)"
           style="fill:#000000"><path
             d="m 0,0 c -0.276,0 -0.5,0.224 -0.5,0.5 v 16.74 c 0,0.277 0.224,0.5 0.5,0.5 0.276,0 0.5,-0.223 0.5,-0.5 V 0.5 C 0.5,0.224 0.276,0 0,0"
             style="fill:#000000;fill-opacity:1;fill-rule:nonzero;stroke:none"
             id="path169"
             inkscape:connector-curvature="0" /></g><g
           id="g171"
           transform="translate(83.4478,63.1297)"
           style="fill:#000000"><path
             d="m 0,0 c -0.276,0 -0.5,0.224 -0.5,0.5 v 16.74 c 0,0.277 0.224,0.5 0.5,0.5 0.276,0 0.5,-0.223 0.5,-0.5 V 0.5 C 0.5,0.224 0.276,0 0,0"
             style="fill:#000000;fill-opacity:1;fill-rule:nonzero;stroke:none"
             id="path173"
             inkscape:connector-curvature="0" /></g><g
           id="g175"
           transform="translate(39.9521,71.5008)"
           style="fill:#000000"><path
             d="m 0,0 c -0.276,0 -0.5,0.224 -0.5,0.5 v 16.74 c 0,0.277 0.224,0.5 0.5,0.5 0.276,0 0.5,-0.223 0.5,-0.5 V 0.5 C 0.5,0.224 0.276,0 0,0"
             style="fill:#000000;fill-opacity:1;fill-rule:nonzero;stroke:none"
             id="path177"
             inkscape:connector-curvature="0" /></g><g
           id="g179"
           transform="translate(68.9497,54.7586)"
           style="fill:#000000"><path
             d="m 0,0 c -0.276,0 -0.5,0.224 -0.5,0.5 v 16.74 c 0,0.277 0.224,0.5 0.5,0.5 0.276,0 0.5,-0.223 0.5,-0.5 V 0.5 C 0.5,0.224 0.276,0 0,0"
             style="fill:#000000;fill-opacity:1;fill-rule:nonzero;stroke:none"
             id="path181"
             inkscape:connector-curvature="0" /></g></g></g></g></svg>